<mxfile host="app.diagrams.net" modified="2021-06-18T14:36:40.623Z" agent="5.0 (Windows NT 10.0; Win64; x64) AppleWebKit/537.36 (KHTML, like Gecko) Chrome/91.0.4472.106 Safari/537.36" etag="lyb80gTqmRAQ_iPlxAtx" version="14.8.0" type="github" pages="3">
  <diagram id="kXS5Yd48JshARtUApv8a" name="User Workflow Diagram">
    <mxGraphModel dx="1038" dy="579" grid="1" gridSize="10" guides="1" tooltips="1" connect="1" arrows="1" fold="1" page="1" pageScale="1" pageWidth="850" pageHeight="1100" math="0" shadow="0">
      <root>
        <mxCell id="0" />
        <mxCell id="1" parent="0" />
        <mxCell id="R3EGq1snWydgVkyKLrFE-11" style="edgeStyle=orthogonalEdgeStyle;rounded=0;orthogonalLoop=1;jettySize=auto;html=1;exitX=0.5;exitY=1;exitDx=0;exitDy=0;entryX=0.5;entryY=0;entryDx=0;entryDy=0;" parent="1" source="R3EGq1snWydgVkyKLrFE-1" target="R3EGq1snWydgVkyKLrFE-2" edge="1">
          <mxGeometry relative="1" as="geometry" />
        </mxCell>
        <mxCell id="R3EGq1snWydgVkyKLrFE-22" style="edgeStyle=orthogonalEdgeStyle;rounded=0;orthogonalLoop=1;jettySize=auto;html=1;exitX=0;exitY=0.25;exitDx=0;exitDy=0;entryX=0.25;entryY=0;entryDx=0;entryDy=0;" parent="1" source="R3EGq1snWydgVkyKLrFE-1" target="R3EGq1snWydgVkyKLrFE-10" edge="1">
          <mxGeometry relative="1" as="geometry" />
        </mxCell>
        <mxCell id="R3EGq1snWydgVkyKLrFE-24" style="edgeStyle=orthogonalEdgeStyle;rounded=0;orthogonalLoop=1;jettySize=auto;html=1;exitX=1;exitY=0.5;exitDx=0;exitDy=0;" parent="1" source="R3EGq1snWydgVkyKLrFE-1" target="R3EGq1snWydgVkyKLrFE-3" edge="1">
          <mxGeometry relative="1" as="geometry" />
        </mxCell>
        <mxCell id="R3EGq1snWydgVkyKLrFE-1" value="Home Page&lt;br&gt;(Job Listing)" style="rounded=1;whiteSpace=wrap;html=1;" parent="1" vertex="1">
          <mxGeometry x="360" y="260" width="120" height="60" as="geometry" />
        </mxCell>
        <mxCell id="R3EGq1snWydgVkyKLrFE-12" style="edgeStyle=orthogonalEdgeStyle;rounded=0;orthogonalLoop=1;jettySize=auto;html=1;exitX=0.5;exitY=1;exitDx=0;exitDy=0;" parent="1" source="R3EGq1snWydgVkyKLrFE-2" target="R3EGq1snWydgVkyKLrFE-4" edge="1">
          <mxGeometry relative="1" as="geometry" />
        </mxCell>
        <mxCell id="R3EGq1snWydgVkyKLrFE-2" value="Login Page" style="rounded=1;whiteSpace=wrap;html=1;" parent="1" vertex="1">
          <mxGeometry x="360" y="370" width="120" height="60" as="geometry" />
        </mxCell>
        <mxCell id="R3EGq1snWydgVkyKLrFE-25" style="edgeStyle=orthogonalEdgeStyle;rounded=0;orthogonalLoop=1;jettySize=auto;html=1;exitX=0.5;exitY=1;exitDx=0;exitDy=0;entryX=1;entryY=0.5;entryDx=0;entryDy=0;" parent="1" source="R3EGq1snWydgVkyKLrFE-3" target="R3EGq1snWydgVkyKLrFE-4" edge="1">
          <mxGeometry relative="1" as="geometry" />
        </mxCell>
        <mxCell id="R3EGq1snWydgVkyKLrFE-3" value="Register Page" style="rounded=1;whiteSpace=wrap;html=1;" parent="1" vertex="1">
          <mxGeometry x="540" y="370" width="120" height="60" as="geometry" />
        </mxCell>
        <mxCell id="R3EGq1snWydgVkyKLrFE-13" style="edgeStyle=orthogonalEdgeStyle;rounded=0;orthogonalLoop=1;jettySize=auto;html=1;exitX=0.5;exitY=1;exitDx=0;exitDy=0;entryX=0.5;entryY=0;entryDx=0;entryDy=0;" parent="1" source="R3EGq1snWydgVkyKLrFE-4" target="R3EGq1snWydgVkyKLrFE-5" edge="1">
          <mxGeometry relative="1" as="geometry" />
        </mxCell>
        <mxCell id="R3EGq1snWydgVkyKLrFE-4" value="Email Verify Page" style="rounded=1;whiteSpace=wrap;html=1;" parent="1" vertex="1">
          <mxGeometry x="360" y="470" width="120" height="60" as="geometry" />
        </mxCell>
        <mxCell id="R3EGq1snWydgVkyKLrFE-14" style="edgeStyle=orthogonalEdgeStyle;rounded=0;orthogonalLoop=1;jettySize=auto;html=1;exitX=0.5;exitY=1;exitDx=0;exitDy=0;entryX=0.5;entryY=0;entryDx=0;entryDy=0;" parent="1" source="R3EGq1snWydgVkyKLrFE-5" target="R3EGq1snWydgVkyKLrFE-6" edge="1">
          <mxGeometry relative="1" as="geometry" />
        </mxCell>
        <mxCell id="R3EGq1snWydgVkyKLrFE-5" value="Email Verified Page" style="rounded=1;whiteSpace=wrap;html=1;" parent="1" vertex="1">
          <mxGeometry x="360" y="580" width="120" height="60" as="geometry" />
        </mxCell>
        <mxCell id="R3EGq1snWydgVkyKLrFE-15" style="edgeStyle=orthogonalEdgeStyle;rounded=0;orthogonalLoop=1;jettySize=auto;html=1;exitX=0.25;exitY=1;exitDx=0;exitDy=0;entryX=0.25;entryY=0;entryDx=0;entryDy=0;" parent="1" source="R3EGq1snWydgVkyKLrFE-6" target="R3EGq1snWydgVkyKLrFE-7" edge="1">
          <mxGeometry relative="1" as="geometry" />
        </mxCell>
        <mxCell id="R3EGq1snWydgVkyKLrFE-17" style="edgeStyle=orthogonalEdgeStyle;rounded=0;orthogonalLoop=1;jettySize=auto;html=1;exitX=1;exitY=0.25;exitDx=0;exitDy=0;entryX=0.75;entryY=0;entryDx=0;entryDy=0;" parent="1" source="R3EGq1snWydgVkyKLrFE-6" target="R3EGq1snWydgVkyKLrFE-8" edge="1">
          <mxGeometry relative="1" as="geometry" />
        </mxCell>
        <mxCell id="R3EGq1snWydgVkyKLrFE-6" value="User Panel" style="rounded=1;whiteSpace=wrap;html=1;" parent="1" vertex="1">
          <mxGeometry x="360" y="690" width="120" height="60" as="geometry" />
        </mxCell>
        <mxCell id="R3EGq1snWydgVkyKLrFE-16" style="edgeStyle=orthogonalEdgeStyle;rounded=0;orthogonalLoop=1;jettySize=auto;html=1;exitX=0.75;exitY=0;exitDx=0;exitDy=0;entryX=0.75;entryY=1;entryDx=0;entryDy=0;" parent="1" source="R3EGq1snWydgVkyKLrFE-7" target="R3EGq1snWydgVkyKLrFE-6" edge="1">
          <mxGeometry relative="1" as="geometry" />
        </mxCell>
        <mxCell id="R3EGq1snWydgVkyKLrFE-7" value="User Update Info" style="rounded=1;whiteSpace=wrap;html=1;" parent="1" vertex="1">
          <mxGeometry x="360" y="800" width="120" height="60" as="geometry" />
        </mxCell>
        <mxCell id="R3EGq1snWydgVkyKLrFE-18" style="edgeStyle=orthogonalEdgeStyle;rounded=0;orthogonalLoop=1;jettySize=auto;html=1;exitX=0.25;exitY=0;exitDx=0;exitDy=0;entryX=1;entryY=0.75;entryDx=0;entryDy=0;" parent="1" source="R3EGq1snWydgVkyKLrFE-8" target="R3EGq1snWydgVkyKLrFE-6" edge="1">
          <mxGeometry relative="1" as="geometry" />
        </mxCell>
        <mxCell id="R3EGq1snWydgVkyKLrFE-19" style="edgeStyle=orthogonalEdgeStyle;rounded=0;orthogonalLoop=1;jettySize=auto;html=1;exitX=0.25;exitY=1;exitDx=0;exitDy=0;entryX=0.25;entryY=0;entryDx=0;entryDy=0;" parent="1" source="R3EGq1snWydgVkyKLrFE-8" target="R3EGq1snWydgVkyKLrFE-9" edge="1">
          <mxGeometry relative="1" as="geometry" />
        </mxCell>
        <mxCell id="R3EGq1snWydgVkyKLrFE-8" value="CV Form Update" style="rounded=1;whiteSpace=wrap;html=1;" parent="1" vertex="1">
          <mxGeometry x="520" y="800" width="120" height="60" as="geometry" />
        </mxCell>
        <mxCell id="R3EGq1snWydgVkyKLrFE-20" style="edgeStyle=orthogonalEdgeStyle;rounded=0;orthogonalLoop=1;jettySize=auto;html=1;exitX=0.75;exitY=0;exitDx=0;exitDy=0;entryX=0.75;entryY=1;entryDx=0;entryDy=0;" parent="1" source="R3EGq1snWydgVkyKLrFE-9" target="R3EGq1snWydgVkyKLrFE-8" edge="1">
          <mxGeometry relative="1" as="geometry" />
        </mxCell>
        <mxCell id="R3EGq1snWydgVkyKLrFE-9" value="CV Form Generate" style="rounded=1;whiteSpace=wrap;html=1;" parent="1" vertex="1">
          <mxGeometry x="520" y="900" width="120" height="60" as="geometry" />
        </mxCell>
        <mxCell id="R3EGq1snWydgVkyKLrFE-23" style="edgeStyle=orthogonalEdgeStyle;rounded=0;orthogonalLoop=1;jettySize=auto;html=1;exitX=0.75;exitY=0;exitDx=0;exitDy=0;entryX=0;entryY=0.75;entryDx=0;entryDy=0;" parent="1" source="R3EGq1snWydgVkyKLrFE-10" target="R3EGq1snWydgVkyKLrFE-1" edge="1">
          <mxGeometry relative="1" as="geometry" />
        </mxCell>
        <mxCell id="R3EGq1snWydgVkyKLrFE-10" value="Job Detail" style="rounded=1;whiteSpace=wrap;html=1;" parent="1" vertex="1">
          <mxGeometry x="180" y="370" width="120" height="60" as="geometry" />
        </mxCell>
        <mxCell id="R3EGq1snWydgVkyKLrFE-27" value="&lt;b&gt;&lt;font style=&quot;font-size: 17px&quot;&gt;Miyabi Bonsai User Workflow Diagram&lt;/font&gt;&lt;/b&gt;" style="text;html=1;strokeColor=none;fillColor=none;align=center;verticalAlign=middle;whiteSpace=wrap;rounded=0;" parent="1" vertex="1">
          <mxGeometry x="233.75" y="130" width="372.5" height="50" as="geometry" />
        </mxCell>
      </root>
    </mxGraphModel>
  </diagram>
  <diagram id="ne1NKymZ_afcRdxzQGIw" name="iShop User Work Flow">
    <mxGraphModel dx="1483" dy="827" grid="1" gridSize="10" guides="1" tooltips="1" connect="1" arrows="1" fold="1" page="1" pageScale="1" pageWidth="850" pageHeight="1100" math="0" shadow="0">
      <root>
        <mxCell id="-k16EtfWNsqull9WaWTe-0" />
        <mxCell id="-k16EtfWNsqull9WaWTe-1" parent="-k16EtfWNsqull9WaWTe-0" />
        <mxCell id="PTqdesvuPv7yQYzXkdr6-2" style="edgeStyle=orthogonalEdgeStyle;rounded=0;orthogonalLoop=1;jettySize=auto;html=1;exitX=1;exitY=0.5;exitDx=0;exitDy=0;" edge="1" parent="-k16EtfWNsqull9WaWTe-1" source="PTqdesvuPv7yQYzXkdr6-3" target="PTqdesvuPv7yQYzXkdr6-7">
          <mxGeometry relative="1" as="geometry">
            <Array as="points">
              <mxPoint x="480" y="270" />
              <mxPoint x="1060" y="270" />
            </Array>
          </mxGeometry>
        </mxCell>
        <mxCell id="Op8d2CixBK_XqkfvHN4B-6" style="edgeStyle=orthogonalEdgeStyle;rounded=0;orthogonalLoop=1;jettySize=auto;html=1;exitX=0;exitY=0.5;exitDx=0;exitDy=0;" edge="1" parent="-k16EtfWNsqull9WaWTe-1" source="PTqdesvuPv7yQYzXkdr6-3" target="Op8d2CixBK_XqkfvHN4B-4">
          <mxGeometry relative="1" as="geometry">
            <Array as="points">
              <mxPoint x="360" y="270" />
              <mxPoint x="90" y="270" />
              <mxPoint x="90" y="710" />
            </Array>
          </mxGeometry>
        </mxCell>
        <mxCell id="Op8d2CixBK_XqkfvHN4B-9" style="edgeStyle=orthogonalEdgeStyle;rounded=0;orthogonalLoop=1;jettySize=auto;html=1;exitX=1;exitY=0.75;exitDx=0;exitDy=0;entryX=0.5;entryY=0;entryDx=0;entryDy=0;" edge="1" parent="-k16EtfWNsqull9WaWTe-1" source="PTqdesvuPv7yQYzXkdr6-3" target="PTqdesvuPv7yQYzXkdr6-5">
          <mxGeometry relative="1" as="geometry" />
        </mxCell>
        <mxCell id="Op8d2CixBK_XqkfvHN4B-23" style="edgeStyle=orthogonalEdgeStyle;rounded=0;orthogonalLoop=1;jettySize=auto;html=1;exitX=0.25;exitY=1;exitDx=0;exitDy=0;entryX=0.25;entryY=0;entryDx=0;entryDy=0;" edge="1" parent="-k16EtfWNsqull9WaWTe-1" source="PTqdesvuPv7yQYzXkdr6-3" target="Op8d2CixBK_XqkfvHN4B-10">
          <mxGeometry relative="1" as="geometry" />
        </mxCell>
        <mxCell id="Op8d2CixBK_XqkfvHN4B-25" style="edgeStyle=orthogonalEdgeStyle;rounded=0;orthogonalLoop=1;jettySize=auto;html=1;exitX=0.75;exitY=1;exitDx=0;exitDy=0;entryX=0.25;entryY=0;entryDx=0;entryDy=0;" edge="1" parent="-k16EtfWNsqull9WaWTe-1" source="PTqdesvuPv7yQYzXkdr6-3" target="Op8d2CixBK_XqkfvHN4B-15">
          <mxGeometry relative="1" as="geometry" />
        </mxCell>
        <mxCell id="PTqdesvuPv7yQYzXkdr6-3" value="Home Page&lt;br&gt;(Goods Listing)" style="rounded=1;whiteSpace=wrap;html=1;" vertex="1" parent="-k16EtfWNsqull9WaWTe-1">
          <mxGeometry x="360" y="260" width="280" height="60" as="geometry" />
        </mxCell>
        <mxCell id="Op8d2CixBK_XqkfvHN4B-2" style="edgeStyle=orthogonalEdgeStyle;rounded=0;orthogonalLoop=1;jettySize=auto;html=1;exitX=0.5;exitY=1;exitDx=0;exitDy=0;entryX=0.5;entryY=0;entryDx=0;entryDy=0;" edge="1" parent="-k16EtfWNsqull9WaWTe-1" source="PTqdesvuPv7yQYzXkdr6-5" target="PTqdesvuPv7yQYzXkdr6-14">
          <mxGeometry relative="1" as="geometry" />
        </mxCell>
        <mxCell id="PTqdesvuPv7yQYzXkdr6-5" value="Login Page" style="rounded=1;whiteSpace=wrap;html=1;" vertex="1" parent="-k16EtfWNsqull9WaWTe-1">
          <mxGeometry x="860" y="360" width="120" height="60" as="geometry" />
        </mxCell>
        <mxCell id="Op8d2CixBK_XqkfvHN4B-3" style="edgeStyle=orthogonalEdgeStyle;rounded=0;orthogonalLoop=1;jettySize=auto;html=1;exitX=0.5;exitY=1;exitDx=0;exitDy=0;entryX=0.75;entryY=0;entryDx=0;entryDy=0;" edge="1" parent="-k16EtfWNsqull9WaWTe-1" source="PTqdesvuPv7yQYzXkdr6-7" target="PTqdesvuPv7yQYzXkdr6-14">
          <mxGeometry relative="1" as="geometry" />
        </mxCell>
        <mxCell id="PTqdesvuPv7yQYzXkdr6-7" value="Register Page" style="rounded=1;whiteSpace=wrap;html=1;" vertex="1" parent="-k16EtfWNsqull9WaWTe-1">
          <mxGeometry x="990" y="360" width="120" height="60" as="geometry" />
        </mxCell>
        <mxCell id="PTqdesvuPv7yQYzXkdr6-12" style="edgeStyle=orthogonalEdgeStyle;rounded=0;orthogonalLoop=1;jettySize=auto;html=1;exitX=0.25;exitY=1;exitDx=0;exitDy=0;entryX=0.25;entryY=0;entryDx=0;entryDy=0;" edge="1" parent="-k16EtfWNsqull9WaWTe-1" source="PTqdesvuPv7yQYzXkdr6-14" target="PTqdesvuPv7yQYzXkdr6-16">
          <mxGeometry relative="1" as="geometry" />
        </mxCell>
        <mxCell id="PTqdesvuPv7yQYzXkdr6-13" style="edgeStyle=orthogonalEdgeStyle;rounded=0;orthogonalLoop=1;jettySize=auto;html=1;exitX=1;exitY=0.25;exitDx=0;exitDy=0;entryX=0.75;entryY=0;entryDx=0;entryDy=0;" edge="1" parent="-k16EtfWNsqull9WaWTe-1" source="PTqdesvuPv7yQYzXkdr6-14" target="PTqdesvuPv7yQYzXkdr6-19">
          <mxGeometry relative="1" as="geometry" />
        </mxCell>
        <mxCell id="PTqdesvuPv7yQYzXkdr6-14" value="User Panel" style="rounded=1;whiteSpace=wrap;html=1;" vertex="1" parent="-k16EtfWNsqull9WaWTe-1">
          <mxGeometry x="860" y="510" width="120" height="60" as="geometry" />
        </mxCell>
        <mxCell id="PTqdesvuPv7yQYzXkdr6-15" style="edgeStyle=orthogonalEdgeStyle;rounded=0;orthogonalLoop=1;jettySize=auto;html=1;exitX=0.75;exitY=0;exitDx=0;exitDy=0;entryX=0.75;entryY=1;entryDx=0;entryDy=0;" edge="1" parent="-k16EtfWNsqull9WaWTe-1" source="PTqdesvuPv7yQYzXkdr6-16" target="PTqdesvuPv7yQYzXkdr6-14">
          <mxGeometry relative="1" as="geometry" />
        </mxCell>
        <mxCell id="PTqdesvuPv7yQYzXkdr6-16" value="User Update Info" style="rounded=1;whiteSpace=wrap;html=1;" vertex="1" parent="-k16EtfWNsqull9WaWTe-1">
          <mxGeometry x="860" y="620" width="120" height="60" as="geometry" />
        </mxCell>
        <mxCell id="PTqdesvuPv7yQYzXkdr6-17" style="edgeStyle=orthogonalEdgeStyle;rounded=0;orthogonalLoop=1;jettySize=auto;html=1;exitX=0.25;exitY=0;exitDx=0;exitDy=0;entryX=1;entryY=0.75;entryDx=0;entryDy=0;" edge="1" parent="-k16EtfWNsqull9WaWTe-1" source="PTqdesvuPv7yQYzXkdr6-19" target="PTqdesvuPv7yQYzXkdr6-14">
          <mxGeometry relative="1" as="geometry" />
        </mxCell>
        <mxCell id="PTqdesvuPv7yQYzXkdr6-18" style="edgeStyle=orthogonalEdgeStyle;rounded=0;orthogonalLoop=1;jettySize=auto;html=1;exitX=0.25;exitY=1;exitDx=0;exitDy=0;entryX=0.25;entryY=0;entryDx=0;entryDy=0;" edge="1" parent="-k16EtfWNsqull9WaWTe-1" source="PTqdesvuPv7yQYzXkdr6-19" target="PTqdesvuPv7yQYzXkdr6-21">
          <mxGeometry relative="1" as="geometry" />
        </mxCell>
        <mxCell id="PTqdesvuPv7yQYzXkdr6-19" value="Order Listing" style="rounded=1;whiteSpace=wrap;html=1;" vertex="1" parent="-k16EtfWNsqull9WaWTe-1">
          <mxGeometry x="1020" y="620" width="120" height="60" as="geometry" />
        </mxCell>
        <mxCell id="PTqdesvuPv7yQYzXkdr6-20" style="edgeStyle=orthogonalEdgeStyle;rounded=0;orthogonalLoop=1;jettySize=auto;html=1;exitX=0.75;exitY=0;exitDx=0;exitDy=0;entryX=0.75;entryY=1;entryDx=0;entryDy=0;" edge="1" parent="-k16EtfWNsqull9WaWTe-1" source="PTqdesvuPv7yQYzXkdr6-21" target="PTqdesvuPv7yQYzXkdr6-19">
          <mxGeometry relative="1" as="geometry" />
        </mxCell>
        <mxCell id="PTqdesvuPv7yQYzXkdr6-21" value="Order Detail" style="rounded=1;whiteSpace=wrap;html=1;" vertex="1" parent="-k16EtfWNsqull9WaWTe-1">
          <mxGeometry x="1020" y="730" width="120" height="60" as="geometry" />
        </mxCell>
        <mxCell id="Op8d2CixBK_XqkfvHN4B-29" style="edgeStyle=orthogonalEdgeStyle;rounded=0;orthogonalLoop=1;jettySize=auto;html=1;exitX=0.5;exitY=0;exitDx=0;exitDy=0;entryX=0.75;entryY=1;entryDx=0;entryDy=0;" edge="1" parent="-k16EtfWNsqull9WaWTe-1" source="PTqdesvuPv7yQYzXkdr6-23" target="Op8d2CixBK_XqkfvHN4B-10">
          <mxGeometry relative="1" as="geometry" />
        </mxCell>
        <mxCell id="Op8d2CixBK_XqkfvHN4B-31" style="edgeStyle=orthogonalEdgeStyle;rounded=0;orthogonalLoop=1;jettySize=auto;html=1;exitX=1;exitY=0;exitDx=0;exitDy=0;entryX=0.5;entryY=1;entryDx=0;entryDy=0;" edge="1" parent="-k16EtfWNsqull9WaWTe-1" source="PTqdesvuPv7yQYzXkdr6-23" target="Op8d2CixBK_XqkfvHN4B-15">
          <mxGeometry relative="1" as="geometry" />
        </mxCell>
        <mxCell id="Op8d2CixBK_XqkfvHN4B-34" style="edgeStyle=orthogonalEdgeStyle;rounded=0;orthogonalLoop=1;jettySize=auto;html=1;exitX=0.5;exitY=1;exitDx=0;exitDy=0;" edge="1" parent="-k16EtfWNsqull9WaWTe-1" source="PTqdesvuPv7yQYzXkdr6-23" target="Op8d2CixBK_XqkfvHN4B-4">
          <mxGeometry relative="1" as="geometry" />
        </mxCell>
        <mxCell id="PTqdesvuPv7yQYzXkdr6-23" value="Goods Detail" style="rounded=1;whiteSpace=wrap;html=1;" vertex="1" parent="-k16EtfWNsqull9WaWTe-1">
          <mxGeometry x="360" y="500" width="280" height="60" as="geometry" />
        </mxCell>
        <mxCell id="Op8d2CixBK_XqkfvHN4B-0" value="&lt;b&gt;&lt;font style=&quot;font-size: 17px&quot;&gt;iShop User Workflow Diagram&lt;/font&gt;&lt;/b&gt;" style="text;html=1;strokeColor=none;fillColor=none;align=center;verticalAlign=middle;whiteSpace=wrap;rounded=0;" vertex="1" parent="-k16EtfWNsqull9WaWTe-1">
          <mxGeometry x="500" y="100" width="372.5" height="50" as="geometry" />
        </mxCell>
        <mxCell id="Op8d2CixBK_XqkfvHN4B-35" style="edgeStyle=orthogonalEdgeStyle;rounded=0;orthogonalLoop=1;jettySize=auto;html=1;exitX=0;exitY=0.25;exitDx=0;exitDy=0;entryX=0;entryY=0.75;entryDx=0;entryDy=0;" edge="1" parent="-k16EtfWNsqull9WaWTe-1" source="Op8d2CixBK_XqkfvHN4B-4" target="PTqdesvuPv7yQYzXkdr6-3">
          <mxGeometry relative="1" as="geometry">
            <Array as="points">
              <mxPoint x="170" y="685" />
              <mxPoint x="170" y="305" />
            </Array>
          </mxGeometry>
        </mxCell>
        <mxCell id="Op8d2CixBK_XqkfvHN4B-38" style="edgeStyle=orthogonalEdgeStyle;rounded=0;orthogonalLoop=1;jettySize=auto;html=1;exitX=0.25;exitY=1;exitDx=0;exitDy=0;entryX=0.25;entryY=0;entryDx=0;entryDy=0;" edge="1" parent="-k16EtfWNsqull9WaWTe-1" source="Op8d2CixBK_XqkfvHN4B-4" target="Op8d2CixBK_XqkfvHN4B-37">
          <mxGeometry relative="1" as="geometry" />
        </mxCell>
        <mxCell id="Op8d2CixBK_XqkfvHN4B-4" value="List Cart" style="rounded=1;whiteSpace=wrap;html=1;" vertex="1" parent="-k16EtfWNsqull9WaWTe-1">
          <mxGeometry x="360" y="670" width="280" height="60" as="geometry" />
        </mxCell>
        <mxCell id="Op8d2CixBK_XqkfvHN4B-24" style="edgeStyle=orthogonalEdgeStyle;rounded=0;orthogonalLoop=1;jettySize=auto;html=1;exitX=0.75;exitY=0;exitDx=0;exitDy=0;entryX=0.5;entryY=1;entryDx=0;entryDy=0;" edge="1" parent="-k16EtfWNsqull9WaWTe-1" source="Op8d2CixBK_XqkfvHN4B-10" target="PTqdesvuPv7yQYzXkdr6-3">
          <mxGeometry relative="1" as="geometry" />
        </mxCell>
        <mxCell id="Op8d2CixBK_XqkfvHN4B-27" style="edgeStyle=orthogonalEdgeStyle;rounded=0;orthogonalLoop=1;jettySize=auto;html=1;exitX=0.25;exitY=1;exitDx=0;exitDy=0;entryX=0.25;entryY=0;entryDx=0;entryDy=0;" edge="1" parent="-k16EtfWNsqull9WaWTe-1" source="Op8d2CixBK_XqkfvHN4B-10" target="PTqdesvuPv7yQYzXkdr6-23">
          <mxGeometry relative="1" as="geometry" />
        </mxCell>
        <mxCell id="Op8d2CixBK_XqkfvHN4B-10" value="Category Detail&lt;br&gt;(Goods Listing)" style="rounded=1;whiteSpace=wrap;html=1;" vertex="1" parent="-k16EtfWNsqull9WaWTe-1">
          <mxGeometry x="360" y="360" width="130" height="60" as="geometry" />
        </mxCell>
        <mxCell id="Op8d2CixBK_XqkfvHN4B-26" style="edgeStyle=orthogonalEdgeStyle;rounded=0;orthogonalLoop=1;jettySize=auto;html=1;exitX=0.75;exitY=0;exitDx=0;exitDy=0;entryX=1;entryY=1;entryDx=0;entryDy=0;" edge="1" parent="-k16EtfWNsqull9WaWTe-1" source="Op8d2CixBK_XqkfvHN4B-15" target="PTqdesvuPv7yQYzXkdr6-3">
          <mxGeometry relative="1" as="geometry" />
        </mxCell>
        <mxCell id="Op8d2CixBK_XqkfvHN4B-30" style="edgeStyle=orthogonalEdgeStyle;rounded=0;orthogonalLoop=1;jettySize=auto;html=1;exitX=0.25;exitY=1;exitDx=0;exitDy=0;entryX=0.75;entryY=0;entryDx=0;entryDy=0;" edge="1" parent="-k16EtfWNsqull9WaWTe-1" source="Op8d2CixBK_XqkfvHN4B-15" target="PTqdesvuPv7yQYzXkdr6-23">
          <mxGeometry relative="1" as="geometry" />
        </mxCell>
        <mxCell id="Op8d2CixBK_XqkfvHN4B-15" value="Search Result &lt;br&gt;(Goods Listing)" style="rounded=1;whiteSpace=wrap;html=1;" vertex="1" parent="-k16EtfWNsqull9WaWTe-1">
          <mxGeometry x="520" y="360" width="120" height="60" as="geometry" />
        </mxCell>
        <mxCell id="Op8d2CixBK_XqkfvHN4B-39" style="edgeStyle=orthogonalEdgeStyle;rounded=0;orthogonalLoop=1;jettySize=auto;html=1;exitX=0.75;exitY=0;exitDx=0;exitDy=0;entryX=0.75;entryY=1;entryDx=0;entryDy=0;" edge="1" parent="-k16EtfWNsqull9WaWTe-1" source="Op8d2CixBK_XqkfvHN4B-37" target="Op8d2CixBK_XqkfvHN4B-4">
          <mxGeometry relative="1" as="geometry" />
        </mxCell>
        <mxCell id="Op8d2CixBK_XqkfvHN4B-37" value="Checkout Page" style="rounded=1;whiteSpace=wrap;html=1;" vertex="1" parent="-k16EtfWNsqull9WaWTe-1">
          <mxGeometry x="360" y="780" width="280" height="60" as="geometry" />
        </mxCell>
      </root>
    </mxGraphModel>
  </diagram>
  <diagram id="MSNefa4A1GaAyFLb2OZJ" name="Home Page Wireframe">
    <mxGraphModel dx="1221" dy="681" grid="1" gridSize="10" guides="1" tooltips="1" connect="1" arrows="1" fold="1" page="1" pageScale="1" pageWidth="850" pageHeight="1100" math="0" shadow="0">
      <root>
        <mxCell id="it1VfTKfV1E_WLA2Ra3W-0" />
        <mxCell id="it1VfTKfV1E_WLA2Ra3W-1" parent="it1VfTKfV1E_WLA2Ra3W-0" />
        <mxCell id="it1VfTKfV1E_WLA2Ra3W-2" value="Website Header" style="rounded=1;whiteSpace=wrap;html=1;" vertex="1" parent="it1VfTKfV1E_WLA2Ra3W-1">
          <mxGeometry x="160" y="180" width="580" height="60" as="geometry" />
        </mxCell>
        <mxCell id="it1VfTKfV1E_WLA2Ra3W-3" value="&lt;b&gt;&lt;font style=&quot;font-size: 16px&quot;&gt;Desktop View Wireframe&lt;/font&gt;&lt;/b&gt;" style="text;html=1;strokeColor=none;fillColor=none;align=center;verticalAlign=middle;whiteSpace=wrap;rounded=0;" vertex="1" parent="it1VfTKfV1E_WLA2Ra3W-1">
          <mxGeometry x="340" y="50" width="220" height="20" as="geometry" />
        </mxCell>
        <mxCell id="it1VfTKfV1E_WLA2Ra3W-5" value="" style="rounded=1;whiteSpace=wrap;html=1;" vertex="1" parent="it1VfTKfV1E_WLA2Ra3W-1">
          <mxGeometry x="160" y="240" width="580" height="30" as="geometry" />
        </mxCell>
        <mxCell id="it1VfTKfV1E_WLA2Ra3W-6" value="Brand Image" style="rounded=1;whiteSpace=wrap;html=1;" vertex="1" parent="it1VfTKfV1E_WLA2Ra3W-1">
          <mxGeometry x="160" y="240" width="80" height="30" as="geometry" />
        </mxCell>
        <mxCell id="it1VfTKfV1E_WLA2Ra3W-7" value="+ Post Job" style="rounded=1;whiteSpace=wrap;html=1;" vertex="1" parent="it1VfTKfV1E_WLA2Ra3W-1">
          <mxGeometry x="360" y="240" width="80" height="30" as="geometry" />
        </mxCell>
        <mxCell id="it1VfTKfV1E_WLA2Ra3W-8" value="Login" style="rounded=1;whiteSpace=wrap;html=1;" vertex="1" parent="it1VfTKfV1E_WLA2Ra3W-1">
          <mxGeometry x="440" y="240" width="80" height="30" as="geometry" />
        </mxCell>
        <mxCell id="it1VfTKfV1E_WLA2Ra3W-9" value="Register" style="rounded=1;whiteSpace=wrap;html=1;" vertex="1" parent="it1VfTKfV1E_WLA2Ra3W-1">
          <mxGeometry x="520" y="240" width="80" height="30" as="geometry" />
        </mxCell>
        <mxCell id="it1VfTKfV1E_WLA2Ra3W-10" value="Logout" style="rounded=1;whiteSpace=wrap;html=1;" vertex="1" parent="it1VfTKfV1E_WLA2Ra3W-1">
          <mxGeometry x="600" y="240" width="80" height="30" as="geometry" />
        </mxCell>
        <mxCell id="it1VfTKfV1E_WLA2Ra3W-11" value="&lt;font style=&quot;font-size: 8px&quot;&gt;Account Avatar&lt;/font&gt;" style="rounded=1;whiteSpace=wrap;html=1;" vertex="1" parent="it1VfTKfV1E_WLA2Ra3W-1">
          <mxGeometry x="680" y="240" width="60" height="30" as="geometry" />
        </mxCell>
        <mxCell id="it1VfTKfV1E_WLA2Ra3W-13" value="&lt;font face=&quot;Comic Sans MS&quot;&gt;Navigation Bar&lt;/font&gt;" style="text;html=1;strokeColor=none;fillColor=none;align=center;verticalAlign=middle;whiteSpace=wrap;rounded=0;" vertex="1" parent="it1VfTKfV1E_WLA2Ra3W-1">
          <mxGeometry x="10" y="220" width="120" height="20" as="geometry" />
        </mxCell>
        <mxCell id="it1VfTKfV1E_WLA2Ra3W-16" value="" style="curved=1;endArrow=classic;html=1;exitX=0.5;exitY=1;exitDx=0;exitDy=0;entryX=0;entryY=0.5;entryDx=0;entryDy=0;" edge="1" parent="it1VfTKfV1E_WLA2Ra3W-1" source="it1VfTKfV1E_WLA2Ra3W-13" target="it1VfTKfV1E_WLA2Ra3W-6">
          <mxGeometry width="50" height="50" relative="1" as="geometry">
            <mxPoint x="60" y="250" as="sourcePoint" />
            <mxPoint x="150" y="260" as="targetPoint" />
            <Array as="points">
              <mxPoint x="130" y="270" />
            </Array>
          </mxGeometry>
        </mxCell>
        <mxCell id="it1VfTKfV1E_WLA2Ra3W-17" value="" style="curved=1;endArrow=classic;html=1;exitX=0.5;exitY=1;exitDx=0;exitDy=0;entryX=0.162;entryY=-0.07;entryDx=0;entryDy=0;entryPerimeter=0;" edge="1" parent="it1VfTKfV1E_WLA2Ra3W-1" target="it1VfTKfV1E_WLA2Ra3W-2">
          <mxGeometry width="50" height="50" relative="1" as="geometry">
            <mxPoint x="90" y="170" as="sourcePoint" />
            <mxPoint x="170" y="190" as="targetPoint" />
            <Array as="points">
              <mxPoint x="170" y="120" />
              <mxPoint x="220" y="140" />
            </Array>
          </mxGeometry>
        </mxCell>
        <mxCell id="it1VfTKfV1E_WLA2Ra3W-18" value="&lt;font face=&quot;Comic Sans MS&quot;&gt;Website Heading&lt;/font&gt;" style="text;html=1;strokeColor=none;fillColor=none;align=center;verticalAlign=middle;whiteSpace=wrap;rounded=0;" vertex="1" parent="it1VfTKfV1E_WLA2Ra3W-1">
          <mxGeometry x="10" y="170" width="120" height="20" as="geometry" />
        </mxCell>
        <mxCell id="it1VfTKfV1E_WLA2Ra3W-19" value="" style="rounded=1;whiteSpace=wrap;html=1;" vertex="1" parent="it1VfTKfV1E_WLA2Ra3W-1">
          <mxGeometry x="160" y="320" width="150" height="260" as="geometry" />
        </mxCell>
        <mxCell id="it1VfTKfV1E_WLA2Ra3W-20" value="&lt;font face=&quot;Comic Sans MS&quot;&gt;Filter Menu&lt;/font&gt;" style="text;html=1;strokeColor=none;fillColor=none;align=center;verticalAlign=middle;whiteSpace=wrap;rounded=0;" vertex="1" parent="it1VfTKfV1E_WLA2Ra3W-1">
          <mxGeometry y="330" width="120" height="20" as="geometry" />
        </mxCell>
        <mxCell id="it1VfTKfV1E_WLA2Ra3W-21" value="" style="curved=1;endArrow=classic;html=1;exitX=0.5;exitY=1;exitDx=0;exitDy=0;entryX=-0.013;entryY=0.192;entryDx=0;entryDy=0;entryPerimeter=0;" edge="1" parent="it1VfTKfV1E_WLA2Ra3W-1" source="it1VfTKfV1E_WLA2Ra3W-20" target="it1VfTKfV1E_WLA2Ra3W-19">
          <mxGeometry width="50" height="50" relative="1" as="geometry">
            <mxPoint x="60" y="360" as="sourcePoint" />
            <mxPoint x="140" y="380" as="targetPoint" />
            <Array as="points">
              <mxPoint x="70" y="380" />
              <mxPoint x="120" y="390" />
            </Array>
          </mxGeometry>
        </mxCell>
        <mxCell id="it1VfTKfV1E_WLA2Ra3W-23" value="Sort by Salary" style="rounded=1;fillColor=none;strokeColor=none;html=1;fontColor=#596780;align=left;fontSize=11;spacingLeft=10;fontSize=11" vertex="1" parent="it1VfTKfV1E_WLA2Ra3W-1">
          <mxGeometry x="180" y="360" width="100" height="20" as="geometry" />
        </mxCell>
        <mxCell id="it1VfTKfV1E_WLA2Ra3W-24" value="Mix" style="rounded=1;fillColor=#F1F2F4;strokeColor=none;html=1;fontColor=#596780;align=left;fontSize=12;spacingLeft=10" vertex="1" parent="it1VfTKfV1E_WLA2Ra3W-1">
          <mxGeometry x="180" y="380" width="100" height="33" as="geometry" />
        </mxCell>
        <mxCell id="it1VfTKfV1E_WLA2Ra3W-25" value="" style="shape=triangle;direction=south;fillColor=#596780;strokeColor=none;html=1" vertex="1" parent="it1VfTKfV1E_WLA2Ra3W-24">
          <mxGeometry x="1" y="0.5" width="12" height="6" relative="1" as="geometry">
            <mxPoint x="-20" y="-3" as="offset" />
          </mxGeometry>
        </mxCell>
        <mxCell id="it1VfTKfV1E_WLA2Ra3W-26" value="Category" style="rounded=1;fillColor=none;strokeColor=none;html=1;fontColor=#596780;align=left;fontSize=11;spacingLeft=10;fontSize=11" vertex="1" parent="it1VfTKfV1E_WLA2Ra3W-1">
          <mxGeometry x="180" y="440" width="100" height="20" as="geometry" />
        </mxCell>
        <mxCell id="it1VfTKfV1E_WLA2Ra3W-27" value="Developer" style="rounded=1;fillColor=#F1F2F4;strokeColor=none;html=1;fontColor=#596780;align=left;fontSize=12;spacingLeft=10" vertex="1" parent="it1VfTKfV1E_WLA2Ra3W-1">
          <mxGeometry x="180" y="460" width="100" height="33" as="geometry" />
        </mxCell>
        <mxCell id="it1VfTKfV1E_WLA2Ra3W-28" value="" style="shape=triangle;direction=south;fillColor=#596780;strokeColor=none;html=1" vertex="1" parent="it1VfTKfV1E_WLA2Ra3W-27">
          <mxGeometry x="1" y="0.5" width="12" height="6" relative="1" as="geometry">
            <mxPoint x="-20" y="-3" as="offset" />
          </mxGeometry>
        </mxCell>
        <mxCell id="it1VfTKfV1E_WLA2Ra3W-30" value="Search" style="rounded=1;html=1;shadow=0;dashed=0;whiteSpace=wrap;fontSize=10;fillColor=#E6E6E6;align=center;strokeColor=#B3B3B3;fontColor=#333333;" vertex="1" parent="it1VfTKfV1E_WLA2Ra3W-1">
          <mxGeometry x="177.25" y="530" width="105.5" height="28.88" as="geometry" />
        </mxCell>
        <mxCell id="it1VfTKfV1E_WLA2Ra3W-31" value="" style="rounded=1;whiteSpace=wrap;html=1;" vertex="1" parent="it1VfTKfV1E_WLA2Ra3W-1">
          <mxGeometry x="360" y="320" width="380" height="270" as="geometry" />
        </mxCell>
        <mxCell id="it1VfTKfV1E_WLA2Ra3W-32" value="&lt;font face=&quot;Comic Sans MS&quot;&gt;Job Listing&lt;/font&gt;" style="text;html=1;strokeColor=none;fillColor=none;align=center;verticalAlign=middle;whiteSpace=wrap;rounded=0;" vertex="1" parent="it1VfTKfV1E_WLA2Ra3W-1">
          <mxGeometry x="800" y="320" width="120" height="20" as="geometry" />
        </mxCell>
        <mxCell id="it1VfTKfV1E_WLA2Ra3W-33" value="" style="curved=1;endArrow=classic;html=1;exitX=0.25;exitY=0;exitDx=0;exitDy=0;entryX=0.871;entryY=-0.001;entryDx=0;entryDy=0;entryPerimeter=0;" edge="1" parent="it1VfTKfV1E_WLA2Ra3W-1" source="it1VfTKfV1E_WLA2Ra3W-32" target="it1VfTKfV1E_WLA2Ra3W-31">
          <mxGeometry width="50" height="50" relative="1" as="geometry">
            <mxPoint x="840" y="290" as="sourcePoint" />
            <mxPoint x="1003.96" y="295.79999999999995" as="targetPoint" />
            <Array as="points">
              <mxPoint x="810" y="290" />
              <mxPoint x="740" y="290" />
            </Array>
          </mxGeometry>
        </mxCell>
      </root>
    </mxGraphModel>
  </diagram>
</mxfile>
